:SAMPLES-PER-SECOND 30
:FRAME-RANGE 1-3535
:FULLY-SPECIFIED
:DEGREES
1989
root  9.24429 41.3609 45.3748 -0.110702 -26.7374 -6.69204
RightUpLeg  -68.6856 -28.5431 -15.8175
RightLeg  63.0757 -0.449934 -1.5424
RightFoot  8.91956 -2.73616 15.5736
RightToes  1.22775e-009 1.2921e-014 -6.02303e-014
Spine  30.6878 -1.70789 20.2689
Spine1  0.774901 6.56804 -10.8718
HEad  2.57018 -1.82851 1.30841
LeftShoulder1  0.930642 -1.92544 -9.8013
LeftArm  -23.8518 -21.2697 -5.78435
LeftForeArm  28.7248 -67.346 -24.8807
LeftHand  0.124281 0.696679 -3.20565
RightShoulder  9.24055 48.8229 9.54544
RightArm  -4.43348 40.6272 20.0426
RightForeArm  11.6935 26.0287 4.96859
RightHand  -0.00488274 5.37596 -0.367558
LeftUpLeg  -26.8224 16.1785 32.9572
LeftLeg  61.2087 23.6182 38.6864
LeftFoot  -5.86909 17.3375 -145.773
LeftToes  2.52163e-011 5.65494e-011 -1.09494e-012
1990
root  12.1464 41.4699 46.7177 1.65931 -32.9635 -4.78901
RightUpLeg  -84.6397 -30.0069 -3.99934
RightLeg  76.2471 -0.827063 -5.26001
RightFoot  2.86078 -1.52605 12.3637
RightToes  1.22775e-009 1.2921e-014 -6.02303e-014
Spine  30.6242 -2.00788 17.8355
Spine1  1.77172 6.78433 -16.1574
HEad  0.668182 -3.96555 2.30799
LeftShoulder1  1.00742 -1.39326 -13.5951
LeftArm  -13.058 -8.84526 -8.43531
LeftForeArm  20.2866 -60.8961 -18.6526
LeftHand  0.187353 0.0172341 -4.08548
RightShoulder  5.01355 49.5499 0.651454
RightArm  -15.1535 44.9623 16.0745
RightForeArm  11.3031 25.3004 4.82776
RightHand  0.046627 5.27839 0.194568
LeftUpLeg  -27.7215 18.0571 32.0391
LeftLeg  43.465 -1.68852 -1.32913
LeftFoot  10.5011 3.24759 -17.059
LeftToes  2.52163e-011 5.65494e-011 -1.09494e-012
1991
root  15.349 40.1705 48.4655 4.28755 -39.9442 -4.09485
RightUpLeg  -100.245 -27.7778 7.39918
RightLeg  90.2636 0.570268 -6.88703
RightFoot  -1.42389 -0.941459 10.7092
RightToes  1.22775e-009 1.2921e-014 -6.02303e-014
Spine  28.5195 -1.30458 16.6591
Spine1  2.42923 7.74662 -18.2495
HEad  -0.59165 -6.55127 4.55438
LeftShoulder1  1.1031 -0.903437 -18.4467
LeftArm  -4.59736 4.04771 -12.4668
LeftForeArm  16.776 -51.772 -12.969
LeftHand  0.220941 -0.811375 -4.0779
RightShoulder  0.569211 49.1762 -8.48108
RightArm  -26.4492 47.4791 13.1003
RightForeArm  14.5566 23.6108 4.29727
RightHand  -0.0366025 5.01259 -0.712035
LeftUpLeg  -20.9141 15.1123 32.8506
LeftLeg  30.4018 -8.11833 -4.78992
LeftFoot  14.0872 4.61123 -20.6323
LeftToes  2.52163e-011 5.65494e-011 -1.09494e-012
1992
root  18.6402 38.5125 50.3221 5.75386 -46.4739 -4.84614
RightUpLeg  -108.398 -24.6961 15.9421
RightLeg  102.1 2.02136 -6.6766
RightFoot  -4.85871 -0.712345 11.9513
RightToes  1.22775e-009 1.2921e-014 -6.02303e-014
Spine  29.4679 -1.24023 16.6396
Spine1  0.65783 8.54269 -20.7797
HEad  -1.79551 -11.2452 7.94119
LeftShoulder1  1.12127 -0.346243 -22.8117
LeftArm  2.4201 15.5373 -17.6517
LeftForeArm  9.87788 -42.3428 -9.55284
LeftHand  0.228892 -0.944433 -4.12401
RightShoulder  -0.621605 48.9893 -10.961
RightArm  -32.1783 48.7194 10.9077
RightForeArm  15.2344 23.5719 4.25583
RightHand  -0.0664806 4.68972 -1.05861
LeftUpLeg  -14.4288 7.29244 33.1231
LeftLeg  22.7991 -11.9025 -5.12763
LeftFoot  14.3408 4.51499 -20.0219
LeftToes  2.52163e-011 5.65494e-011 -1.09494e-012
1993
root  22.1285 36.6179 52.1614 5.77994 -51.4402 -6.19732
RightUpLeg  -107.424 -24.4129 18.3059
RightLeg  110.769 2.09645 -4.08536
RightFoot  -8.92952 -0.386335 15.3674
RightToes  1.22775e-009 1.2921e-014 -6.02303e-014
Spine  32.2719 -1.6161 18.0435
Spine1  -0.258973 9.44702 -22.6184
HEad  -4.27512 -17.9645 10.3857
LeftShoulder1  1.31982 -0.438644 -27.356
LeftArm  8.23617 21.6749 -24.7932
LeftForeArm  -2.94689 -30.6733 -6.86381
LeftHand  0.337135 -1.77903 -5.32087
RightShoulder  0.357107 48.2336 -8.90682
RightArm  -30.9454 50.5956 10.354
RightForeArm  15.5647 24.5758 4.44196
RightHand  -0.100707 4.67974 -1.45326
LeftUpLeg  -11.5367 0.264119 31.2828
LeftLeg  25.9716 -8.19544 -3.99983
LeftFoot  -1.88679 2.91175 -34.1126
LeftToes  2.52163e-011 5.65494e-011 -1.09494e-012
1994
root  25.6304 34.9397 53.6929 4.23007 -55.9006 -6.9797
RightUpLeg  -96.5664 -25.0443 13.9871
RightLeg  114.938 1.86519 -2.8743
RightFoot  -12.9149 0.0833235 12.4314
RightToes  1.22775e-009 1.2921e-014 -6.02303e-014
Spine  37.1057 -2.00504 19.0576
Spine1  -0.944366 10.5019 -24.3414
HEad  -9.17791 -24.3951 12.9545
LeftShoulder1  1.61488 -0.841551 -31.1166
LeftArm  7.86885 21.4388 -31.409
LeftForeArm  -5.90607 -14.5999 -11.829
LeftHand  0.342274 -1.38989 -5.75475
RightShoulder  2.37017 47.8999 -4.60391
RightArm  -24.4564 52.7873 12.1468
RightForeArm  14.9603 24.2052 4.39433
RightHand  -0.0707591 4.74607 -1.10515
LeftUpLeg  -13.0771 2.59798 27.4427
LeftLeg  37.8705 -9.5643 -7.53244
LeftFoot  -24.5822 -3.17808 -28.117
LeftToes  2.52163e-011 5.65494e-011 -1.09494e-012
